<?xml version="1.0" encoding="UTF-8" standalone="no"?>
<!-- Created with Inkscape (http://www.inkscape.org/) -->

<svg
   width="256"
   height="256"
   viewBox="0 0 67.733332 67.733333"
   version="1.1"
   id="svg1"
   inkscape:version="1.4.2 (ebf0e940d0, 2025-05-08)"
   sodipodi:docname="camara.svg"
   xmlns:inkscape="http://www.inkscape.org/namespaces/inkscape"
   xmlns:sodipodi="http://sodipodi.sourceforge.net/DTD/sodipodi-0.dtd"
   xmlns="http://www.w3.org/2000/svg"
   xmlns:svg="http://www.w3.org/2000/svg">
  <sodipodi:namedview
     id="namedview1"
     pagecolor="#3f3f3f"
     bordercolor="#000000"
     borderopacity="0.25"
     inkscape:showpageshadow="2"
     inkscape:pageopacity="0.0"
     inkscape:pagecheckerboard="0"
     inkscape:deskcolor="#d1d1d1"
     inkscape:document-units="px"
     inkscape:zoom="2.9963041"
     inkscape:cx="107.13198"
     inkscape:cy="131.6622"
     inkscape:window-width="1920"
     inkscape:window-height="1052"
     inkscape:window-x="0"
     inkscape:window-y="0"
     inkscape:window-maximized="1"
     inkscape:current-layer="svg1"
     showguides="false" />
  <defs
     id="defs1" />
  <g
     inkscape:label="Capa 1"
     inkscape:groupmode="layer"
     id="layer1"
     style="mix-blend-mode:normal" />
  <path
     id="rect1"
     style="fill:#ffffff;fill-opacity:1;stroke-width:0.642246"
     d="m 11.472247,14.749167 c -3.9886136,0 -7.1993351,3.211355 -7.1993351,7.199968 v 30.855376 c 0,3.988613 3.2107215,7.199967 7.1993351,7.199967 h 44.788838 c 3.988613,0 7.199336,-3.211354 7.199336,-7.199967 V 21.949135 c 0,-3.988613 -3.210723,-7.199968 -7.199336,-7.199968 z m 3.825318,4.752573 a 3.8322599,3.8322599 0 0 1 3.832271,3.832271 3.8322599,3.8322599 0 0 1 -3.832271,3.832271 3.8322599,3.8322599 0 0 1 -3.832271,-3.832271 3.8322599,3.8322599 0 0 1 3.832271,-3.832271 z m 24.394304,1.999886 A 15.875064,15.875064 0 0 1 55.567067,37.376822 15.875064,15.875064 0 0 1 39.691869,53.25202 15.875064,15.875064 0 0 1 23.816673,37.376822 15.875064,15.875064 0 0 1 39.691869,21.501626 Z" />
  <rect
     style="fill:#ffffff;fill-opacity:1;stroke-width:0.266273"
     id="rect2"
     width="26.893795"
     height="12.636843"
     x="26.244978"
     y="7.7288551"
     ry="6.3184214"
     rx="5.5631037" />
  <rect
     style="fill:#ffffff;fill-opacity:1;stroke-width:0.128246"
     id="rect3"
     width="11.772786"
     height="6.6964469"
     x="9.4110107"
     y="11.073087"
     ry="2.2533801"
     rx="5.8863931" />
  <circle
     style="fill:#ffffff;fill-opacity:1;stroke-width:1.14975"
     id="circle3"
     cx="39.691875"
     cy="37.376827"
     r="11.392765" />
</svg>
